HIERARCHY
ROOT Hips
{
 OFFSET 0.000000 0.000000 0.000000
 CHANNELS 6 Xposition Yposition Zposition Yrotation Xrotation Zrotation
 JOINT Chest
 {
  OFFSET 0.000000 9.585900 0.002600
  CHANNELS 3 Yrotation Xrotation Zrotation
  JOINT Chest2
  {
   OFFSET 0.000000 9.601200 -0.005300
   CHANNELS 3 Yrotation Xrotation Zrotation
   JOINT Chest3
   {
    OFFSET 0.000000 9.561800 0.000000
    CHANNELS 3 Yrotation Xrotation Zrotation
    JOINT Chest4
    {
     OFFSET 0.000000 9.552100 0.000000
     CHANNELS 3 Yrotation Xrotation Zrotation
     JOINT Neck
     {
      OFFSET 0.000000 14.453000 0.000000
      CHANNELS 3 Yrotation Xrotation Zrotation
      JOINT Head
      {
       OFFSET 0.000000 8.936500 -0.011300
       CHANNELS 3 Yrotation Xrotation Zrotation
       End Site
       {
        OFFSET 0.000000 17.073600 -0.006000
       }
      }
     }
     JOINT RightCollar
     {
      OFFSET -2.921100 9.558500 0.000000
      CHANNELS 3 Yrotation Xrotation Zrotation
      JOINT RightShoulder
      {
       OFFSET -13.519700 0.000000 0.000000
       CHANNELS 3 Yrotation Xrotation Zrotation
       JOINT RightElbow
       {
        OFFSET 0.000000 -29.696600 0.000000
        CHANNELS 3 Yrotation Xrotation Zrotation
        JOINT RightWrist
        {
         OFFSET 0.000000 -24.004700 0.000000
         CHANNELS 3 Yrotation Xrotation Zrotation
         End Site
         {
          OFFSET 0.000000 -17.728500 0.000000
         }
        }
       }
      }
     }
     JOINT LeftCollar
     {
      OFFSET 2.921100 9.558500 0.000000
      CHANNELS 3 Yrotation Xrotation Zrotation
      JOINT LeftShoulder
      {
       OFFSET 13.519700 0.000000 0.000000
       CHANNELS 3 Yrotation Xrotation Zrotation
       JOINT LeftElbow
       {
        OFFSET 0.000000 -29.696600 0.000000
        CHANNELS 3 Yrotation Xrotation Zrotation
        JOINT LeftWrist
        {
         OFFSET 0.000000 -24.004700 0.000000
         CHANNELS 3 Yrotation Xrotation Zrotation
         End Site
         {
          OFFSET 0.000000 -17.728500 0.000000
         }
        }
       }
      }
     }
    }
   }
  }
 }
 JOINT RightHip
 {
  OFFSET -7.771700 -0.012900 -0.001300
  CHANNELS 3 Yrotation Xrotation Zrotation
  JOINT RightKnee
  {
   OFFSET 0.000000 -40.869800 0.001200
   CHANNELS 3 Yrotation Xrotation Zrotation
   JOINT RightAnkle
   {
    OFFSET 0.000000 -39.717900 0.002100
    CHANNELS 3 Yrotation Xrotation Zrotation
    JOINT RightToe
    {
     OFFSET 0.000000 -4.965400 11.033500
     CHANNELS 3 Yrotation Xrotation Zrotation
     End Site
     {
      OFFSET 0.000000 -1.423100 5.872300
     }
    }
   }
  }
 }
 JOINT LeftHip
 {
  OFFSET 7.771700 -0.012900 -0.001300
  CHANNELS 3 Yrotation Xrotation Zrotation
  JOINT LeftKnee
  {
   OFFSET 0.000000 -40.869800 0.001200
   CHANNELS 3 Yrotation Xrotation Zrotation
   JOINT LeftAnkle
   {
    OFFSET 0.000000 -39.717900 0.002100
    CHANNELS 3 Yrotation Xrotation Zrotation
    JOINT LeftToe
    {
     OFFSET 0.000000 -4.965400 11.033500
     CHANNELS 3 Yrotation Xrotation Zrotation
     End Site
     {
      OFFSET 0.000000 -1.423100 5.872300
     }
    }
   }
  }
 }
}
MOTION
Frames: 11
Frame Time: 0.008333
0.000000 85.388000 0.000000 0.000000 -5.767877 0.000000 0.000000 11.653817 0.000000 0.000000 -5.885947 0.000000 0.000000 -0.000000 0.000000 0.000000 -0.000000 0.000000 0.000000 12.528835 0.000000 0.000000 0.711642 0.000000 0.000000 -0.000000 0.000000 0.000000 0.000000 -90.000000 0.000000 -2.309062 0.000000 0.000000 2.309062 0.000000 0.000000 -0.000000 0.000000 0.000000 -0.000000 90.000000 0.000000 -2.309062 0.000000 0.000000 2.309062 0.000000 0.000000 8.520406 0.000000 0.000000 1.905762 0.000000 -0.000000 -4.658285 0.000000 0.000000 -0.000000 0.000000 0.000000 8.520406 0.000000 0.000000 1.905762 0.000000 -0.000000 -4.658285 0.000000 0.000000 -0.000000 0.000000
7.710143 52.175598 39.375617 173.554171 -35.910423 -2.075451 3.372722 22.326212 2.253051 0.432456 3.170578 0.423059 0.713042 5.133291 0.697988 3.012114 18.777307 2.962207 5.210307 14.990943 -0.555850 9.952295 -7.737164 -2.970349 -2.206588 -3.077649 -3.730926 0.115433 -16.889166 -3.468072 -129.881531 -52.860521 156.618302 -9.341959 -2.961972 6.293230 -5.592921 -2.756091 0.357546 2.887774 -20.509514 5.649079 80.885942 -35.760206 -126.372212 16.894542 -8.233303 4.663102 -3.894178 -45.335602 3.028380 173.158940 86.083864 176.609833 -2.059876 -12.301328 -1.167001 0.065791 -0.227000 0.031371 -0.594849 -41.622210 4.621227 69.265633 82.755427 58.414969 -6.200852 -12.133763 9.825122 0.529809 1.695947 0.239046
7.701161 52.177104 39.373103 173.530230 -35.882198 -2.063330 3.395689 22.322146 2.254989 0.438288 3.201181 0.426207 0.718583 5.140579 0.700223 3.031322 18.786552 2.970633 5.277774 14.955142 -0.538483 10.074325 -7.800152 -2.965799 -2.161561 -3.076146 -3.736921 0.324899 -17.311107 -3.438886 -130.088692 -53.211914 156.587637 -9.587154 -3.535638 5.421885 -5.668094 -2.753571 0.321865 2.449382 -20.880176 5.724651 81.395616 -36.297854 -126.107556 16.665640 -9.127895 6.249923 -3.877605 -45.362326 3.021592 173.322266 86.087051 176.776509 -2.044325 -12.301809 -1.168836 0.059129 -0.226593 0.029925 -0.561793 -41.647385 4.595906 69.273666 82.747409 58.432361 -6.187331 -12.144187 9.835987 0.520845 1.698776 0.230191
7.691918 52.175979 39.373175 173.488119 -35.827371 -2.048589 3.434805 22.291216 2.264614 0.439352 3.203799 0.427648 0.724310 5.160433 0.703863 3.055086 18.812673 2.982578 5.292044 14.901581 -0.539766 10.224870 -7.826235 -2.962241 -2.125073 -3.069722 -3.744112 0.522452 -17.722821 -3.396717 -130.339601 -53.607128 156.572275 -9.744936 -4.051722 4.602408 -5.738531 -2.733276 0.283106 2.062890 -21.224814 5.773882 81.865025 -36.856158 -125.803101 16.379947 -9.782802 7.569418 -3.851506 -45.420131 3.025674 173.249194 86.090939 176.710878 -2.043383 -12.298326 -1.169013 0.060561 -0.223175 0.028111 -0.518196 -41.701777 4.574822 69.298904 82.738451 58.472728 -6.168717 -12.162163 9.844833 0.497461 1.705952 0.220098
7.683073 52.177465 39.367925 173.464736 -35.803771 -2.047973 3.463640 22.317858 2.284018 0.439135 3.180356 0.425923 0.723764 5.148165 0.702799 3.091071 18.873008 2.999158 5.364180 14.890109 -0.524949 10.293671 -7.876449 -2.972058 -2.098220 -3.059063 -3.750564 0.719213 -18.121848 -3.339953 -130.682000 -54.051376 156.600323 -9.812098 -4.487219 3.832934 -5.802176 -2.720140 0.255489 1.734057 -21.520055 5.781857 82.306507 -37.453507 -125.487658 16.095724 -10.222495 8.665345 -3.834276 -45.439475 3.028763 173.116857 86.093182 176.587694 -2.046158 -12.300535 -1.167071 0.062062 -0.222275 0.026858 -0.490347 -41.725589 4.553201 69.375363 82.727750 58.569409 -6.149840 -12.174855 9.848434 0.481643 1.701599 0.212869
7.673489 52.179141 39.360073 173.452012 -35.790847 -2.048394 3.487463 22.354550 2.296200 0.442686 3.186039 0.427845 0.746066 5.209005 0.708968 3.075988 18.794793 2.995476 5.444951 14.927637 -0.512092 10.349377 -7.919561 -2.983658 -2.059505 -3.006522 -3.755749 0.914807 -18.502356 -3.270003 -131.123214 -54.545989 156.677948 -9.793121 -4.833246 3.117868 -5.852455 -2.660419 0.228183 1.476481 -21.785027 5.758835 82.704058 -38.074626 -125.161527 15.839372 -10.480815 9.570028 -3.818267 -45.447259 3.024644 173.003745 86.090907 176.481404 -2.050122 -12.306459 -1.161369 0.062329 -0.223168 0.025779 -0.459524 -41.740053 4.520782 69.459110 82.720274 58.676917 -6.132935 -12.180474 9.856030 0.473697 1.692868 0.203137
7.669524 52.182902 39.347801 173.409500 -35.809338 -2.059848 3.567868 22.481281 2.347789 0.449816 3.197564 0.429996 0.741000 5.174233 0.709430 3.073530 18.745326 2.997681 5.461275 14.920905 -0.512650 10.446313 -7.899792 -2.993850 -2.028102 -2.952451 -3.757838 1.108126 -18.862295 -3.190153 -131.648552 -55.097018 156.799441 -9.702480 -5.096345 2.459479 -5.904208 -2.593827 0.199447 1.284234 -22.023998 5.716340 83.015853 -38.675906 -124.808464 15.605243 -10.609537 10.309499 -3.803045 -45.417466 3.055172 172.833673 86.095649 176.327217 -2.048472 -12.312848 -1.164381 0.063446 -0.223649 0.023888 -0.428982 -41.723159 4.525603 69.593438 82.708013 58.835118 -6.084194 -12.169204 9.872861 0.425254 1.657468 0.175306
7.660084 52.181915 39.338781 173.379891 -35.790581 -2.044501 3.597642 22.491800 2.350196 0.454737 3.235238 0.429791 0.743775 5.162733 0.710283 3.118867 18.841140 3.005839 5.485639 14.867568 -0.514796 10.488399 -7.930040 -3.007696 -2.029608 -3.005869 -3.744567 1.297644 -19.205286 -3.100390 -132.245897 -55.713679 156.962321 -9.574275 -5.283902 1.858680 -5.966975 -2.691633 0.206281 1.136235 -22.177587 5.645785 83.210508 -39.207630 -124.417273 15.380866 -10.658999 10.913416 -3.771364 -45.436804 3.036231 172.503432 86.085286 176.011542 -2.052958 -12.321849 -1.169995 0.065318 -0.223430 0.023936 -0.351949 -41.746761 4.454766 69.731464 82.691138 59.019897 -6.041017 -12.183338 9.893015 0.391338 1.650863 0.153861
7.652154 52.178689 39.330892 173.356809 -35.756904 -2.037140 3.621689 22.488346 2.355925 0.456476 3.275880 0.427418 0.748715 5.173110 0.710768 3.141133 18.878380 3.007785 5.518772 14.858812 -0.517205 10.523864 -7.962100 -3.023115 -2.011829 -3.017219 -3.731928 1.484031 -19.534493 -3.005436 -132.872414 -56.386229 157.139418 -9.425904 -5.394584 1.310352 -6.023765 -2.666686 0.183661 1.034978 -22.386794 5.594097 83.281134 -39.640720 -123.983796 15.172516 -10.669014 11.409080 -3.756124 -45.472450 3.032690 172.310613 86.075055 175.828212 -2.053473 -12.330903 -1.175076 0.065970 -0.222974 0.024870 -0.312759 -41.784117 4.426848 69.814270 82.695235 59.122835 -6.030813 -12.193259 9.915824 0.391869 1.647821 0.137223
7.649967 52.175249 39.322433 173.285242 -35.726405 -2.028470 3.697663 22.569848 2.383845 0.459542 3.236679 0.429433 0.755974 5.205125 0.710595 3.154323 18.874674 3.005087 5.539156 14.849016 -0.518512 10.530170 -8.018458 -3.034284 -1.989447 -3.006303 -3.712452 1.675698 -19.849587 -2.914790 -133.462381 -57.088167 157.275898 -9.252227 -5.421186 0.810304 -6.064699 -2.618380 0.163649 0.948331 -22.574495 5.536591 83.239219 -39.980179 -123.503027 14.992748 -10.673885 11.815960 -3.735908 -45.506104 3.077133 172.198621 86.070968 175.724310 -2.052090 -12.332740 -1.182861 0.065283 -0.222594 0.024622 -0.261113 -41.820748 4.438739 69.934512 82.723313 59.259276 -5.977195 -12.215430 9.948292 0.363221 1.638720 0.108995
7.644933 52.170375 39.313984 173.246799 -35.683887 -2.014719 3.730452 22.543049 2.388658 0.463844 3.300257 0.424901 0.761273 5.217184 0.709913 3.169916 18.892583 3.001206 5.556682 14.839221 -0.517600 10.581365 -8.015410 -3.040717 -1.969735 -2.994374 -3.685279 1.879080 -20.149127 -2.833691 -133.942116 -57.792800 157.302674 -9.050472 -5.358840 0.361541 -6.096487 -2.595135 0.157621 0.858791 -22.718931 5.466953 83.114915 -40.250549 -122.971121 14.839004 -10.693279 12.151733 -3.728147 -45.554163 3.094818 172.130022 86.058140 175.653122 -2.049740 -12.339775 -1.185562 0.064778 -0.223350 0.023956 -0.220163 -41.866805 4.421032 69.993662 82.741910 59.331942 -5.943882 -12.230421 9.974053 0.351362 1.645374 0.108123
